<svg xmlns="http://www.w3.org/2000/svg" viewBox="0 0 128 128">
  <!-- Background -->
  <rect x="4" y="4" width="120" height="120" rx="12" fill="#1e293b"/>

  <!-- Grid lines - thin inner lines -->
  <line x1="44" y1="14" x2="44" y2="114" stroke="#475569" stroke-width="1.5"/>
  <line x1="84" y1="14" x2="84" y2="114" stroke="#475569" stroke-width="1.5"/>
  <line x1="14" y1="44" x2="114" y2="44" stroke="#475569" stroke-width="1.5"/>
  <line x1="14" y1="84" x2="114" y2="84" stroke="#475569" stroke-width="1.5"/>

  <!-- Grid lines - thick box borders -->
  <rect x="14" y="14" width="100" height="100" rx="2" fill="none" stroke="#818cf8" stroke-width="3"/>
  <line x1="14" y1="47.3" x2="114" y2="47.3" stroke="#818cf8" stroke-width="2.5"/>
  <line x1="14" y1="80.7" x2="114" y2="80.7" stroke="#818cf8" stroke-width="2.5"/>
  <line x1="47.3" y1="14" x2="47.3" y2="114" stroke="#818cf8" stroke-width="2.5"/>
  <line x1="80.7" y1="14" x2="80.7" y2="114" stroke="#818cf8" stroke-width="2.5"/>

  <!-- Numbers - given clues (bright white) -->
  <text x="24" y="38" font-family="sans-serif" font-weight="bold" font-size="22" fill="#e2e8f0" text-anchor="middle">5</text>
  <text x="97" y="38" font-family="sans-serif" font-weight="bold" font-size="22" fill="#e2e8f0" text-anchor="middle">3</text>
  <text x="64" y="71" font-family="sans-serif" font-weight="bold" font-size="22" fill="#e2e8f0" text-anchor="middle">9</text>
  <text x="30" y="105" font-family="sans-serif" font-weight="bold" font-size="22" fill="#e2e8f0" text-anchor="middle">1</text>
  <text x="97" y="105" font-family="sans-serif" font-weight="bold" font-size="22" fill="#e2e8f0" text-anchor="middle">7</text>

  <!-- Numbers - user input (indigo) -->
  <text x="64" y="38" font-family="sans-serif" font-size="20" fill="#818cf8" text-anchor="middle">8</text>
  <text x="30" y="71" font-family="sans-serif" font-size="20" fill="#818cf8" text-anchor="middle">4</text>
  <text x="97" y="71" font-family="sans-serif" font-size="20" fill="#818cf8" text-anchor="middle">2</text>
  <text x="64" y="105" font-family="sans-serif" font-size="20" fill="#818cf8" text-anchor="middle">6</text>
</svg>
